<svg xmlns="http://www.w3.org/2000/svg" fill="none" viewBox="0 0 17 17">
  <path fill="#124D1E" d="M14.166 9.444a.5.5 0 0 1-.27-.08l-2.23-1.435-2.229 1.436a.5.5 0 0 1-.755-.547l.675-2.566-1.536-1.463a.5.5 0 0 1 .276-.857l2.187-.306.933-1.902a.5.5 0 0 1 .893-.01l.996 1.912 2.131.306a.5.5 0 0 1 .274.857l-1.536 1.462.675 2.566a.498.498 0 0 1-.484.627Zm-2.5-2.61a.5.5 0 0 1 .271.08l1.418.913-.422-1.607a.5.5 0 0 1 .138-.49l1.004-.955-1.365-.196a.5.5 0 0 1-.372-.264l-.658-1.263-.615 1.252a.5.5 0 0 1-.38.275l-1.424.2 1 .951a.5.5 0 0 1 .14.49l-.424 1.607 1.419-.913a.5.5 0 0 1 .27-.08Z"/>
  <path fill="#124D1E" d="M8.575 15.444A6.907 6.907 0 0 1 5.204 2.508a.5.5 0 0 1 .68.68 5.905 5.905 0 0 0 8.037 8.039.5.5 0 0 1 .681.68 6.92 6.92 0 0 1-6.027 3.537ZM4.33 4.431a5.905 5.905 0 0 0 8.35 8.35 6.905 6.905 0 0 1-8.35-8.35Z"/>
</svg>
