<svg width="40" height="40" viewBox="0 0 40 40" fill="none" xmlns="http://www.w3.org/2000/svg">
<!-- Outlined circle -->
<circle cx="20" cy="20" r="17.5" stroke="#0C4B90" stroke-width="2" fill="none"/>
<!-- Instagram camera icon -->
<g fill="#0C4B90">
  <!-- Outer square -->
  <path d="M25 10H15C12.2 10 10 12.2 10 15V25C10 27.8 12.2 30 15 30H25C27.8 30 30 27.8 30 25V15C30 12.2 27.8 10 25 10ZM28 25C28 26.7 26.7 28 25 28H15C13.3 28 12 26.7 12 25V15C12 13.3 13.3 12 15 12H25C26.7 12 28 13.3 28 25Z"/>
  <!-- Center circle (camera lens) -->
  <path d="M20 15C17.2 15 15 17.2 15 20C15 22.8 17.2 25 20 25C22.8 25 25 22.8 25 20C25 17.2 22.8 15 20 15ZM20 23C18.3 23 17 21.7 17 20C17 18.3 18.3 17 20 17C21.7 17 23 18.3 23 20C23 21.7 21.7 23 20 23Z"/>
  <!-- Top right dot -->
  <circle cx="26" cy="15" r="1"/>
</g>
</svg>