<svg width="40" height="40" viewBox="0 0 40 40" fill="none" xmlns="http://www.w3.org/2000/svg">
<mask id="path-1-inside-1_107_2107" fill="white">
<path d="M20 2.5C29.665 2.5 37.5 10.335 37.5 20C37.5 29.665 29.665 37.5 20 37.5C10.335 37.5 2.5 29.665 2.5 20C2.5 10.335 10.335 2.5 20 2.5ZM12.5791 17.3789V27.4951H15.7256V17.3789H12.5791ZM23.7285 17.1289C22.1993 17.1289 21.174 17.9685 20.7549 18.7627H20.7129V17.3789H17.6973V27.4951H20.8389V22.4922C20.8389 21.1722 21.087 19.8936 22.7236 19.8936C24.3375 19.8936 24.3574 21.4028 24.3574 22.5752V27.4951H27.5V21.9482C27.5 19.2232 26.9135 17.1289 23.7285 17.1289ZM14.1523 12.3516C13.1454 12.3516 12.3291 13.1678 12.3291 14.1748C12.3293 15.1816 13.1455 15.998 14.1523 15.998C15.1592 15.998 15.9754 15.1816 15.9756 14.1748C15.9756 13.1678 15.1593 12.3516 14.1523 12.3516Z"/>
</mask>
<path d="M12.5791 17.3789V15.8164H11.0166V17.3789H12.5791ZM12.5791 27.4951H11.0166V29.0576H12.5791V27.4951ZM15.7256 27.4951V29.0576H17.2881V27.4951H15.7256ZM15.7256 17.3789H17.2881V15.8164H15.7256V17.3789ZM23.7285 17.1289V15.5664V17.1289ZM20.7549 18.7627V20.3252H21.697L22.1367 19.492L20.7549 18.7627ZM20.7129 18.7627H19.1504V20.3252H20.7129V18.7627ZM20.7129 17.3789H22.2754V15.8164H20.7129V17.3789ZM17.6973 17.3789V15.8164H16.1348V17.3789H17.6973ZM17.6973 27.4951H16.1348V29.0576H17.6973V27.4951ZM20.8389 27.4951V29.0576H22.4014V27.4951H20.8389ZM20.8389 22.4922L19.2764 22.4922V22.4922H20.8389ZM22.7236 19.8936L22.7237 18.3311H22.7236V19.8936ZM24.3574 22.5752H25.9199V22.5752L24.3574 22.5752ZM24.3574 27.4951H22.7949V29.0576H24.3574V27.4951ZM27.5 27.4951V29.0576H29.0625V27.4951H27.5ZM14.1523 12.3516V10.7891H14.1523L14.1523 12.3516ZM12.3291 14.1748H10.7666V14.1751L12.3291 14.1748ZM14.1523 15.998L14.1523 17.5605H14.1523V15.998ZM15.9756 14.1748L17.5381 14.1751V14.1748H15.9756ZM20 2.5V4.0625C28.802 4.0625 35.9375 11.198 35.9375 20H37.5H39.0625C39.0625 9.47207 30.5279 0.9375 20 0.9375V2.5ZM37.5 20H35.9375C35.9375 28.802 28.802 35.9375 20 35.9375V37.5V39.0625C30.5279 39.0625 39.0625 30.5279 39.0625 20H37.5ZM20 37.5V35.9375C11.198 35.9375 4.0625 28.802 4.0625 20H2.5H0.9375C0.9375 30.5279 9.47207 39.0625 20 39.0625V37.5ZM2.5 20H4.0625C4.0625 11.198 11.198 4.0625 20 4.0625V2.5V0.9375C9.47207 0.9375 0.9375 9.47207 0.9375 20H2.5ZM12.5791 17.3789H11.0166V27.4951H12.5791H14.1416V17.3789H12.5791ZM12.5791 27.4951V29.0576H15.7256V27.4951V25.9326H12.5791V27.4951ZM15.7256 27.4951H17.2881V17.3789H15.7256H14.1631V27.4951H15.7256ZM15.7256 17.3789V15.8164H12.5791V17.3789V18.9414H15.7256V17.3789ZM23.7285 17.1289V15.5664C21.5925 15.5664 20.0497 16.7514 19.373 18.0334L20.7549 18.7627L22.1367 19.492C22.2984 19.1857 22.8062 18.6914 23.7285 18.6914V17.1289ZM20.7549 18.7627V17.2002H20.7129V18.7627V20.3252H20.7549V18.7627ZM20.7129 18.7627H22.2754V17.3789H20.7129H19.1504V18.7627H20.7129ZM20.7129 17.3789V15.8164H17.6973V17.3789V18.9414H20.7129V17.3789ZM17.6973 17.3789H16.1348V27.4951H17.6973H19.2598V17.3789H17.6973ZM17.6973 27.4951V29.0576H20.8389V27.4951V25.9326H17.6973V27.4951ZM20.8389 27.4951H22.4014V22.4922H20.8389H19.2764V27.4951H20.8389ZM20.8389 22.4922L22.4014 22.4922C22.4014 22.2043 22.4155 21.9678 22.4461 21.7759C22.4772 21.5813 22.5174 21.4858 22.5365 21.451C22.5467 21.4326 22.5324 21.4605 22.4963 21.4805C22.4692 21.4955 22.5177 21.4561 22.7236 21.4561V19.8936V18.3311C22.1112 18.3311 21.515 18.4514 20.981 18.7474C20.4381 19.0485 20.055 19.4785 19.7985 19.9448C19.3261 20.8034 19.2764 21.8047 19.2764 22.4922L20.8389 22.4922ZM22.7236 19.8936L22.7236 21.4561C22.8778 21.4561 22.8512 21.4888 22.7651 21.4287C22.6823 21.3709 22.6714 21.3154 22.6923 21.3683C22.7186 21.4349 22.7522 21.5679 22.7727 21.7992C22.7929 22.0277 22.7949 22.2768 22.7949 22.5752L24.3574 22.5752L25.9199 22.5752C25.9199 22.0593 25.9351 21.0726 25.5992 20.2212C25.4133 19.7502 25.0949 19.2442 24.5544 18.8667C24.0107 18.487 23.3764 18.3311 22.7237 18.3311L22.7236 19.8936ZM24.3574 22.5752H22.7949V27.4951H24.3574H25.9199V22.5752H24.3574ZM24.3574 27.4951V29.0576H27.5V27.4951V25.9326H24.3574V27.4951ZM27.5 27.4951H29.0625V21.9482H27.5H25.9375V27.4951H27.5ZM27.5 21.9482H29.0625C29.0625 20.5519 28.9297 18.9514 28.1304 17.6835C27.2269 16.2501 25.7055 15.5664 23.7285 15.5664V17.1289V18.6914C24.9365 18.6914 25.3009 19.0549 25.4868 19.3499C25.7771 19.8104 25.9375 20.6196 25.9375 21.9482H27.5ZM14.1523 12.3516L14.1523 10.7891C12.2825 10.7892 10.7666 12.3048 10.7666 14.1748H12.3291H13.8916C13.8916 14.0309 14.0083 13.9141 14.1524 13.9141L14.1523 12.3516ZM12.3291 14.1748L10.7666 14.1751C10.767 16.0444 12.2823 17.5605 14.1523 17.5605L14.1523 15.998L14.1524 14.4355C14.0087 14.4355 13.8916 14.3188 13.8916 14.1745L12.3291 14.1748ZM14.1523 15.998V17.5605C16.0225 17.5605 17.5377 16.0443 17.5381 14.1751L15.9756 14.1748L14.4131 14.1745C14.4131 14.3189 14.2959 14.4355 14.1523 14.4355V15.998ZM15.9756 14.1748H17.5381C17.5381 12.3049 16.0223 10.7891 14.1523 10.7891V12.3516V13.9141C14.2964 13.9141 14.4131 14.0308 14.4131 14.1748H15.9756Z" fill="#0C4B90" mask="url(#path-1-inside-1_107_2107)"/>
</svg>
