<svg width="176" height="40" viewBox="0 0 176 40" fill="none" xmlns="http://www.w3.org/2000/svg">
<path d="M125.677 13.9105C125.677 11.8774 124.998 10.175 123.64 8.80124C122.292 7.41977 120.62 6.72754 118.631 6.72754C116.648 6.72754 114.975 7.41977 113.609 8.80124C112.243 10.1672 111.56 11.8542 111.56 13.8611C111.56 15.9667 112.268 17.6981 113.683 19.0554C115.09 20.4128 116.715 21.0914 118.557 21.0914C120.555 21.0914 122.242 20.4002 123.616 19.0178C124.99 17.6208 125.677 15.9174 125.677 13.9105ZM125.651 6.93829C127.602 8.87958 128.577 11.2123 128.577 13.9337C128.577 16.6744 127.597 18.9984 125.64 20.9058C123.673 22.8238 121.3 23.7809 118.52 23.7809C116.06 23.7809 113.851 22.9302 111.894 21.2267C109.738 19.3435 108.661 16.8764 108.661 13.8234C108.661 11.1417 109.644 8.83893 111.609 6.91321C113.567 4.9884 115.92 4.02649 118.667 4.02649C121.382 4.02649 123.71 4.99615 125.651 6.93829ZM136.469 13.1332C139.191 13.1332 140.554 12.092 140.554 10.0106C140.554 8.06168 139.228 7.08716 136.579 7.08716H135.555V13.1332H136.469ZM138.793 15.3635L145.031 23.4358H141.515L135.555 15.6381V23.4358H132.681V4.38422H136.049C138.567 4.38422 140.384 4.85693 141.504 5.80334C142.736 6.85614 143.354 8.24634 143.354 9.97388C143.354 11.3235 142.967 12.4836 142.195 13.4532C141.421 14.4247 140.206 15.1566 138.793 15.3635ZM99.3539 17.1181L94.7367 4.40063H94.0368L89.2109 17.1181L84.2515 4.38422H81.1299L88.742 23.4493H89.6807L94.3327 11.1465L98.798 23.4493H99.7348L107.746 4.38422H104.624L99.3539 17.1181ZM151.448 4.38422H148.573V23.4358H157.049V20.7337H151.448V4.38422ZM173.101 13.9105C173.101 11.8213 172.402 10.1257 171.004 8.82642C169.744 7.66626 167.89 7.08716 165.438 7.08716H164.143V20.7337H165.438C166.73 20.7337 167.803 20.5983 168.659 20.3268C169.513 20.0387 170.288 19.5814 170.979 18.9568C172.393 17.6653 173.101 15.9841 173.101 13.9105ZM176 13.9105C176 16.8387 174.976 19.2082 172.929 21.0179C171.9 21.9229 170.822 22.5512 169.695 22.905C168.641 23.2588 167.15 23.4358 165.215 23.4358H161.267V4.38422H165.265C167.182 4.38422 168.695 4.57367 169.806 4.95166C170.999 5.32196 172.081 5.95129 173.052 6.83972C175.018 8.63303 176 10.9899 176 13.9105ZM76.0274 16.1059L73.2035 9.62878L70.2424 16.1059H76.0274ZM73.7972 4.40063L82.346 23.4358H79.1993L77.201 18.809H69.0437L66.9227 23.4358H63.8252L72.6864 4.40063H73.7972ZM54.5793 16.2181H59.3299C59.1974 17.558 58.569 18.7103 57.4428 19.6722C56.3146 20.6264 55.0443 21.1039 53.629 21.1039C51.9662 21.1039 50.4242 20.4669 49.0022 19.1908C47.4805 17.818 46.7187 16.0692 46.7187 13.9462C46.7187 11.89 47.4022 10.1788 48.7673 8.81384C50.1323 7.42361 51.8241 6.72754 53.8378 6.72754C56.0845 6.72754 57.989 7.76971 59.5522 9.8511L61.5997 7.88867C60.4078 6.52258 59.1945 5.53656 57.96 4.92749C56.6684 4.31842 55.2783 4.01392 53.7895 4.01392C51.0169 4.01392 48.6648 4.98065 46.7313 6.91321C44.7978 8.83893 43.832 11.1833 43.832 13.9462C43.832 16.6531 44.7814 18.9733 46.682 20.9058C48.5826 22.8315 50.8651 23.7944 53.5304 23.7944C56.2614 23.7944 58.511 22.7986 60.2792 20.8072C61.0613 19.9188 61.6172 18.9646 61.9459 17.9447C62.2832 16.8436 62.4515 15.5762 62.4515 14.1444V13.515H54.5793V16.2181ZM29.8762 23.4358H40.3895V20.7337H32.7513V14.3668H40.1671V11.6638H32.7513V7.08716H40.3895V4.38422H29.8762V23.4358ZM24.2014 0.288086L24.1714 0.344177V23.3923H21.2354V5.87973L12.6141 22.1374H11.5951L2.93697 5.79755V23.3923H0V0.290039H0.0183563L0.0174103 0.288086H2.95534L12.0978 17.2737H12.1123L21.2354 0.339355V0.290039H21.2625L21.2635 0.288086H24.2014Z" fill="#0C4B90"/>
<path d="M19.1463 38.102C19.1463 38.5002 19.1811 38.7951 19.2517 38.9865C19.3213 39.178 19.4421 39.35 19.6123 39.5009H17.4468C17.6131 39.35 17.7319 39.178 17.8045 38.9865C17.877 38.7951 17.9127 38.5002 17.9127 38.102V32.9908C17.9127 32.5925 17.877 32.2996 17.8045 32.1091C17.7319 31.9206 17.6131 31.7515 17.4468 31.6035H19.6123C19.4421 31.7515 19.3213 31.9206 19.2517 32.1091C19.1811 32.2996 19.1463 32.5925 19.1463 32.9908V34.759H23.4048V32.9908C23.4048 32.5925 23.37 32.2996 23.2994 32.1091C23.2298 31.9206 23.1099 31.7515 22.9388 31.6035H25.1053C24.938 31.7515 24.8192 31.9206 24.7466 32.1091C24.6741 32.2996 24.6393 32.5925 24.6393 32.9908V38.102C24.6393 38.5002 24.6741 38.7951 24.7437 38.9865C24.8143 39.178 24.9342 39.35 25.1053 39.5009H22.9388C23.1099 39.35 23.2298 39.178 23.2994 38.9865C23.37 38.7951 23.4048 38.5002 23.4048 38.102V35.6686H19.1463V38.102Z" fill="#0C4B90"/>
<path d="M32.9203 32.2572C32.0406 32.2572 31.3165 32.5587 30.7452 33.161C30.1758 33.7643 29.8896 34.5338 29.8896 35.4696C29.8896 36.4364 30.1729 37.2387 30.7375 37.8777C31.3021 38.5167 32.0068 38.8358 32.8527 38.8358C33.7276 38.8358 34.4507 38.5341 35.0211 37.929C35.5915 37.3248 35.8767 36.5524 35.8767 35.6117C35.8767 34.645 35.5944 33.8445 35.0298 33.2094C34.4652 32.5752 33.7624 32.2572 32.9203 32.2572ZM32.8749 39.6885C32.2727 39.6885 31.7052 39.5918 31.1715 39.3984C30.6389 39.2051 30.1816 38.9286 29.7988 38.569C29.3966 38.19 29.0872 37.7433 28.8698 37.23C28.6512 36.7158 28.543 36.1772 28.543 35.6117C28.543 35.169 28.6116 34.7388 28.7498 34.3211C28.8881 33.9045 29.0901 33.5158 29.355 33.1562C29.7688 32.5984 30.2792 32.1701 30.8883 31.8714C31.4964 31.5717 32.1586 31.4219 32.8749 31.4219C33.4888 31.4219 34.0621 31.5176 34.5948 31.709C35.1275 31.9004 35.5847 32.176 35.9676 32.5365C36.3774 32.9155 36.6897 33.3631 36.9062 33.8813C37.1218 34.3984 37.2301 34.9563 37.2301 35.5557C37.2301 36.1047 37.1083 36.6432 36.8666 37.1701C36.6239 37.697 36.2827 38.1629 35.8428 38.569C35.4484 38.9363 34.9989 39.2148 34.4952 39.4042C33.9906 39.5937 33.4511 39.6885 32.8749 39.6885Z" fill="#0C4B90"/>
<path d="M43.7496 38.102C43.7496 38.5002 43.7854 38.7951 43.8569 38.9865C43.9294 39.178 44.0484 39.35 44.2156 39.5009H42.0491C42.2202 39.35 42.3401 39.178 42.4097 38.9865C42.4803 38.7951 42.5151 38.5002 42.5151 38.102V32.4678H41.878C41.4391 32.4678 41.0824 32.5016 40.8098 32.5703C40.5372 32.6379 40.3187 32.7481 40.1562 32.8999L40.5478 31.6035H46.1945L45.8242 32.8777C45.7073 32.7375 45.5526 32.6341 45.3612 32.5674C45.1698 32.5006 44.9281 32.4678 44.6362 32.4678H43.7496V38.102Z" fill="#0C4B90"/>
<path d="M49.3311 39.5009C49.4973 39.35 49.6172 39.178 49.6888 38.9865C49.7613 38.7951 49.797 38.5002 49.797 38.102V32.9908C49.797 32.5935 49.7613 32.2996 49.6888 32.1101C49.6172 31.9206 49.4973 31.7515 49.3311 31.6035H53.6582V32.8429C53.4639 32.6921 53.2521 32.5809 53.0211 32.5132C52.7891 32.4446 52.5222 32.4108 52.2187 32.4108C52.064 32.4108 51.889 32.4233 51.6957 32.4475C51.5033 32.4726 51.2849 32.5093 51.0422 32.5587V34.788H52.9756V35.9365C52.8848 35.8301 52.761 35.7547 52.6054 35.7112C52.4507 35.6686 52.1665 35.6464 51.7527 35.6464H51.0422V38.4771C51.3419 38.5225 51.6125 38.5573 51.8552 38.5795C52.0978 38.6028 52.3076 38.6133 52.4865 38.6133C52.8877 38.6133 53.2667 38.5602 53.6234 38.4519C53.9801 38.3436 54.33 38.1783 54.6752 37.954L54.1241 39.5009H49.3311Z" fill="#0C4B90"/>
<path d="M57.7832 39.5009C57.9495 39.35 58.0693 39.178 58.1409 38.9865C58.2134 38.7951 58.2491 38.5002 58.2491 38.102V32.9908C58.2491 32.5935 58.2134 32.2996 58.1409 32.1101C58.0693 31.9206 57.9495 31.7515 57.7832 31.6035H59.9497C59.7786 31.7515 59.6577 31.9206 59.5881 32.1101C59.5175 32.2996 59.4828 32.5935 59.4828 32.9908V38.4771C59.7901 38.5225 60.0647 38.5573 60.3074 38.5795C60.55 38.6028 60.7608 38.6133 60.9387 38.6133C61.3369 38.6133 61.7159 38.5602 62.0755 38.4519C62.4352 38.3436 62.7861 38.1783 63.1273 37.954L62.5764 39.5009H57.7832Z" fill="#0C4B90"/>
<path d="M66.1104 39.3252L65.7344 37.8925C66.1935 38.1989 66.6383 38.4281 67.0714 38.577C67.5025 38.7268 67.9308 38.8022 68.3562 38.8022C68.8976 38.8022 69.3336 38.6852 69.6632 38.4522C69.9929 38.2192 70.1582 37.9176 70.1582 37.5454C70.1582 37.4391 70.1408 37.3327 70.1069 37.2264C70.0731 37.121 70.0238 37.0205 69.959 36.9258C69.815 36.7102 69.3316 36.4008 68.5099 35.9986C68.3011 35.901 68.1396 35.8227 68.0266 35.7657C67.257 35.3789 66.7281 35.0232 66.443 34.6964C66.1559 34.3706 66.0128 33.9839 66.0128 33.5373C66.0128 32.8964 66.2747 32.3878 66.7978 32.0099C67.3208 31.6328 68.0371 31.4443 68.9468 31.4443C69.2089 31.4443 69.4969 31.4617 69.8111 31.4956C70.1253 31.5304 70.4675 31.5835 70.8349 31.6551V32.9805C70.5081 32.7339 70.1814 32.5503 69.8508 32.4285C69.5211 32.3076 69.1779 32.2467 68.8221 32.2467C68.3707 32.2467 68.0081 32.3434 67.7336 32.5367C67.4581 32.7301 67.3208 32.9815 67.3208 33.2927C67.3208 33.5692 67.4291 33.8138 67.6456 34.0255C67.8612 34.2382 68.3465 34.5224 69.1005 34.8792C69.1422 34.8985 69.2069 34.9285 69.2939 34.97C69.931 35.262 70.4067 35.5307 70.7208 35.7773C70.9557 35.959 71.1385 36.1804 71.2699 36.4424C71.4005 36.7043 71.4661 36.9828 71.4661 37.2786C71.4661 37.9572 71.1549 38.5315 70.5333 39.0033C69.9116 39.476 69.1354 39.7119 68.2025 39.7119C67.9028 39.7119 67.5809 39.679 67.2358 39.6152C66.8906 39.5504 66.5155 39.4538 66.1104 39.3252Z" fill="#0C4B90"/>
<path d="M83.094 34.1107C83.3559 33.9358 83.5502 33.752 83.6798 33.5558C83.8083 33.3605 83.8731 33.1536 83.8731 32.9332C83.8731 32.7138 83.7968 32.533 83.646 32.39C83.4942 32.2487 83.2989 32.1772 83.0601 32.1772C82.8436 32.1772 82.6637 32.2487 82.5197 32.39C82.3756 32.533 82.3032 32.7099 82.3032 32.9216C82.3032 33.0773 82.366 33.2503 82.4916 33.4398C82.6164 33.6293 82.8175 33.8526 83.094 34.1107ZM85.2256 37.7659L82.8948 35.469C82.5158 35.7764 82.2393 36.0722 82.0653 36.3564C81.8904 36.6407 81.8034 36.9365 81.8034 37.2429C81.8034 37.6867 81.9542 38.0579 82.2548 38.3547C82.5564 38.6525 82.9325 38.8014 83.3839 38.8014C83.7436 38.8014 84.0723 38.7182 84.3671 38.5509C84.663 38.3847 84.9491 38.1227 85.2256 37.7659ZM82.1611 34.7468C81.8546 34.4094 81.6264 34.101 81.4766 33.8207C81.3267 33.5403 81.2523 33.2783 81.2523 33.0357C81.2523 32.5891 81.435 32.214 81.8004 31.9104C82.1659 31.6068 82.6241 31.4551 83.1732 31.4551C83.6402 31.4551 84.0356 31.6078 84.3614 31.9133C84.6881 32.2178 84.8505 32.5891 84.8505 33.0251C84.8505 33.316 84.7625 33.6109 84.5866 33.9087C84.4097 34.2064 84.1457 34.511 83.7929 34.8213L86.5742 37.4875C86.8575 37.7572 87.2422 38.0666 87.7275 38.4175C88.2128 38.7685 88.76 39.1291 89.371 39.5003H88.2854C87.8261 39.5003 87.4037 39.4084 87.017 39.2247C86.6303 39.0411 86.2194 38.7327 85.7834 38.3006C85.4122 38.7598 85.0042 39.1039 84.5605 39.333C84.1177 39.5621 83.6353 39.6772 83.1162 39.6772C82.3737 39.6772 81.755 39.452 81.26 39.0024C80.7661 38.5539 80.5186 37.9941 80.5186 37.3232C80.5186 36.8988 80.6471 36.4831 80.9052 36.078C81.1624 35.672 81.5819 35.2283 82.1611 34.7468Z" fill="#0C4B90"/>
<path d="M98.6292 38.102C98.6292 38.5002 98.664 38.7951 98.7346 38.9865C98.8042 39.178 98.925 39.35 99.0952 39.5009H96.9287C97.0959 39.35 97.2148 39.178 97.2874 38.9865C97.3589 38.7951 97.3956 38.5002 97.3956 38.102V32.9908C97.3956 32.5925 97.3589 32.2996 97.2874 32.1091C97.2148 31.9206 97.0959 31.7515 96.9287 31.6035H99.6636C100.445 31.6035 101.075 31.7891 101.555 32.1604C102.034 32.5325 102.274 33.0159 102.274 33.6105C102.274 34.0426 102.13 34.4235 101.842 34.7532C101.554 35.0828 101.106 35.3729 100.5 35.6232L102.552 38.3581C102.673 38.5215 102.82 38.6936 102.99 38.8754C103.16 39.0571 103.356 39.2476 103.576 39.4448L102.961 39.5009H102.865C102.576 39.5009 102.296 39.4254 102.023 39.2737C101.751 39.1219 101.519 38.9131 101.33 38.6482L98.9763 35.4019C99.6772 35.2462 100.19 35.0326 100.514 34.7618C100.838 34.4911 101.001 34.1412 101.001 33.713C101.001 33.3146 100.86 32.9908 100.582 32.7404C100.304 32.4901 99.9392 32.3653 99.4877 32.3653C99.3852 32.3653 99.2614 32.374 99.1184 32.3914C98.9733 32.4078 98.8109 32.4339 98.6292 32.4678V38.102Z" fill="#0C4B90"/>
<path d="M106.302 39.5009C106.469 39.35 106.588 39.178 106.66 38.9865C106.732 38.7951 106.769 38.5002 106.769 38.102V32.9908C106.769 32.5935 106.732 32.2996 106.66 32.1101C106.588 31.9206 106.469 31.7515 106.302 31.6035H110.629V32.8429C110.436 32.6921 110.223 32.5809 109.993 32.5132C109.761 32.4446 109.494 32.4108 109.19 32.4108C109.035 32.4108 108.861 32.4233 108.667 32.4475C108.474 32.4726 108.256 32.5093 108.014 32.5587V34.788H109.946V35.9365C109.856 35.8301 109.733 35.7547 109.577 35.7112C109.421 35.6686 109.137 35.6464 108.724 35.6464H108.014V38.4771C108.313 38.5225 108.584 38.5573 108.827 38.5795C109.07 38.6028 109.279 38.6133 109.458 38.6133C109.859 38.6133 110.238 38.5602 110.595 38.4519C110.951 38.3436 111.302 38.1783 111.647 37.954L111.095 39.5009H106.302Z" fill="#0C4B90"/>
<path d="M114.732 39.3252L114.356 37.8925C114.815 38.1989 115.26 38.4281 115.693 38.577C116.125 38.7268 116.553 38.8022 116.977 38.8022C117.52 38.8022 117.956 38.6852 118.285 38.4522C118.615 38.2192 118.78 37.9176 118.78 37.5454C118.78 37.4391 118.763 37.3327 118.729 37.2264C118.695 37.121 118.645 37.0205 118.581 36.9258C118.437 36.7102 117.954 36.4008 117.131 35.9986C116.922 35.901 116.762 35.8227 116.648 35.7657C115.878 35.3789 115.35 35.0232 115.064 34.6964C114.778 34.3706 114.635 33.9839 114.635 33.5373C114.635 32.8964 114.897 32.3878 115.42 32.0099C115.943 31.6328 116.659 31.4443 117.569 31.4443C117.831 31.4443 118.118 31.4617 118.433 31.4956C118.747 31.5304 119.089 31.5835 119.456 31.6551V32.9805C119.13 32.7339 118.803 32.5503 118.473 32.4285C118.143 32.3076 117.8 32.2467 117.443 32.2467C116.993 32.2467 116.629 32.3434 116.355 32.5367C116.08 32.7301 115.943 32.9815 115.943 33.2927C115.943 33.5692 116.051 33.8138 116.267 34.0255C116.482 34.2382 116.969 34.5224 117.723 34.8792C117.764 34.8985 117.828 34.9285 117.916 34.97C118.552 35.262 119.028 35.5307 119.343 35.7773C119.578 35.959 119.761 36.1804 119.892 36.4424C120.023 36.7043 120.087 36.9828 120.087 37.2786C120.087 37.9572 119.777 38.5315 119.155 39.0033C118.533 39.476 117.757 39.7119 116.824 39.7119C116.525 39.7119 116.202 39.679 115.858 39.6152C115.513 39.5504 115.137 39.4538 114.732 39.3252Z" fill="#0C4B90"/>
<path d="M127.642 32.2572C126.762 32.2572 126.037 32.5587 125.467 33.161C124.896 33.7643 124.611 34.5338 124.611 35.4696C124.611 36.4364 124.894 37.2387 125.459 37.8777C126.024 38.5167 126.728 38.8358 127.574 38.8358C128.449 38.8358 129.172 38.5341 129.743 37.929C130.313 37.3248 130.598 36.5524 130.598 35.6117C130.598 34.645 130.316 33.8445 129.751 33.2094C129.186 32.5752 128.484 32.2572 127.642 32.2572ZM127.597 39.6885C126.994 39.6885 126.426 39.5918 125.893 39.3984C125.361 39.2051 124.903 38.9286 124.52 38.569C124.118 38.19 123.809 37.7433 123.59 37.23C123.373 36.7158 123.264 36.1772 123.264 35.6117C123.264 35.169 123.333 34.7388 123.471 34.3211C123.61 33.9045 123.812 33.5158 124.077 33.1562C124.49 32.5984 125.001 32.1701 125.609 31.8714C126.218 31.5717 126.88 31.4219 127.597 31.4219C128.211 31.4219 128.784 31.5176 129.316 31.709C129.848 31.9004 130.306 32.176 130.689 32.5365C131.099 32.9155 131.411 33.3631 131.628 33.8813C131.844 34.3984 131.952 34.9563 131.952 35.5557C131.952 36.1047 131.83 36.6432 131.588 37.1701C131.346 37.697 131.004 38.1629 130.564 38.569C130.17 38.9363 129.721 39.2148 129.217 39.4042C128.712 39.5937 128.173 39.6885 127.597 39.6885Z" fill="#0C4B90"/>
<path d="M137.078 38.102C137.078 38.5002 137.113 38.7951 137.183 38.9865C137.253 39.178 137.373 39.35 137.544 39.5009H135.378C135.545 39.35 135.664 39.178 135.736 38.9865C135.808 38.7951 135.844 38.5002 135.844 38.102V32.9908C135.844 32.5925 135.808 32.2996 135.736 32.1091C135.664 31.9206 135.545 31.7515 135.378 31.6035H138.113C138.894 31.6035 139.523 31.7891 140.004 32.1604C140.482 32.5325 140.723 33.0159 140.723 33.6105C140.723 34.0426 140.578 34.4235 140.291 34.7532C140.002 35.0828 139.555 35.3729 138.949 35.6232L141.001 38.3581C141.122 38.5215 141.268 38.6936 141.438 38.8754C141.61 39.0571 141.805 39.2476 142.024 39.4448L141.41 39.5009H141.314C141.026 39.5009 140.745 39.4254 140.473 39.2737C140.199 39.1219 139.968 38.9131 139.779 38.6482L137.425 35.4019C138.126 35.2462 138.639 35.0326 138.963 34.7618C139.286 34.4911 139.449 34.1412 139.449 33.713C139.449 33.3146 139.31 32.9908 139.031 32.7404C138.753 32.4901 138.387 32.3653 137.937 32.3653C137.834 32.3653 137.711 32.374 137.568 32.3914C137.423 32.4078 137.26 32.4339 137.078 32.4678V38.102Z" fill="#0C4B90"/>
<path d="M147.64 38.102C147.64 38.5002 147.676 38.7951 147.747 38.9865C147.819 39.178 147.938 39.35 148.106 39.5009H145.939C146.11 39.35 146.23 39.178 146.3 38.9865C146.37 38.7951 146.405 38.5002 146.405 38.102V32.4678H145.768C145.328 32.4678 144.973 32.5016 144.7 32.5703C144.427 32.6379 144.209 32.7481 144.046 32.8999L144.438 31.6035H150.085L149.714 32.8777C149.597 32.7375 149.443 32.6341 149.251 32.5674C149.06 32.5006 148.818 32.4678 148.526 32.4678H147.64V38.102Z" fill="#0C4B90"/>
<path d="M153.197 39.3252L152.822 37.8925C153.28 38.1989 153.726 38.4281 154.158 38.577C154.59 38.7268 155.019 38.8022 155.443 38.8022C155.985 38.8022 156.421 38.6852 156.751 38.4522C157.081 38.2192 157.246 37.9176 157.246 37.5454C157.246 37.4391 157.229 37.3327 157.195 37.2264C157.161 37.121 157.111 37.0205 157.047 36.9258C156.903 36.7102 156.42 36.4008 155.597 35.9986C155.389 35.901 155.228 35.8227 155.113 35.7657C154.344 35.3789 153.816 35.0232 153.53 34.6964C153.244 34.3706 153.101 33.9839 153.101 33.5373C153.101 32.8964 153.363 32.3878 153.886 32.0099C154.409 31.6328 155.125 31.4443 156.035 31.4443C156.297 31.4443 156.584 31.4617 156.899 31.4956C157.213 31.5304 157.554 31.5835 157.922 31.6551V32.9805C157.596 32.7339 157.268 32.5503 156.939 32.4285C156.609 32.3076 156.266 32.2467 155.91 32.2467C155.459 32.2467 155.095 32.3434 154.821 32.5367C154.546 32.7301 154.409 32.9815 154.409 33.2927C154.409 33.5692 154.517 33.8138 154.733 34.0255C154.948 34.2382 155.434 34.5224 156.189 34.8792C156.23 34.8985 156.294 34.9285 156.382 34.97C157.018 35.262 157.494 35.5307 157.809 35.7773C158.044 35.959 158.226 36.1804 158.358 36.4424C158.488 36.7043 158.553 36.9828 158.553 37.2786C158.553 37.9572 158.243 38.5315 157.621 39.0033C156.999 39.476 156.222 39.7119 155.29 39.7119C154.991 39.7119 154.668 39.679 154.324 39.6152C153.979 39.5504 153.602 39.4538 153.197 39.3252Z" fill="#0C4B90"/>
</svg>
