<svg width="176" height="40" viewBox="0 0 176 40" fill="none" xmlns="http://www.w3.org/2000/svg">
<path d="M125.677 13.6224C125.677 11.5893 124.998 9.88687 123.64 8.51315C122.292 7.13168 120.62 6.43945 118.631 6.43945C116.648 6.43945 114.975 7.13168 113.609 8.51315C112.243 9.87915 111.56 11.5661 111.56 13.5731C111.56 15.6786 112.268 17.41 113.683 18.7673C115.09 20.1247 116.715 20.8033 118.557 20.8033C120.555 20.8033 122.242 20.1121 123.616 18.7297C124.99 17.3327 125.677 15.6293 125.677 13.6224ZM125.651 6.65021C127.602 8.59149 128.577 10.9242 128.577 13.6456C128.577 16.3863 127.597 18.7103 125.64 20.6177C123.673 22.5357 121.3 23.4928 118.52 23.4928C116.06 23.4928 113.851 22.6421 111.894 20.9387C109.738 19.0555 108.661 16.5883 108.661 13.5353C108.661 10.8536 109.644 8.55084 111.609 6.62512C113.567 4.70032 115.92 3.7384 118.667 3.7384C121.382 3.7384 123.71 4.70807 125.651 6.65021ZM136.469 12.8451C139.191 12.8451 140.554 11.804 140.554 9.72253C140.554 7.77359 139.228 6.79907 136.579 6.79907H135.555V12.8451H136.469ZM138.793 15.0754L145.031 23.1477H141.515L135.555 15.35V23.1477H132.681V4.09613H136.049C138.567 4.09613 140.384 4.56885 141.504 5.51526C142.736 6.56805 143.354 7.95825 143.354 9.68579C143.354 11.0354 142.967 12.1955 142.195 13.1651C141.421 14.1367 140.206 14.8685 138.793 15.0754ZM99.3539 16.83L94.7367 4.11255H94.0368L89.2109 16.83L84.2515 4.09613H81.1299L88.742 23.1612H89.6807L94.3327 10.8585L98.798 23.1612H99.7348L107.746 4.09613H104.624L99.3539 16.83ZM151.448 4.09613H148.573V23.1477H157.049V20.4456H151.448V4.09613ZM173.101 13.6224C173.101 11.5332 172.402 9.83759 171.004 8.53833C169.744 7.37817 167.89 6.79907 165.438 6.79907H164.143V20.4456H165.438C166.73 20.4456 167.803 20.3102 168.659 20.0387C169.513 19.7506 170.288 19.2933 170.979 18.6688C172.393 17.3772 173.101 15.696 173.101 13.6224ZM176 13.6224C176 16.5507 174.976 18.9201 172.929 20.7299C171.9 21.6348 170.822 22.2631 169.695 22.6169C168.641 22.9707 167.15 23.1477 165.215 23.1477H161.267V4.09613H165.265C167.182 4.09613 168.695 4.28558 169.806 4.66357C170.999 5.03387 172.081 5.66321 173.052 6.55164C175.018 8.34494 176 10.7018 176 13.6224ZM76.0274 15.8178L73.2035 9.3407L70.2424 15.8178H76.0274ZM73.7972 4.11255L82.346 23.1477H79.1993L77.201 18.5209H69.0437L66.9227 23.1477H63.8252L72.6864 4.11255H73.7972ZM54.5793 15.93H59.3299C59.1974 17.2699 58.569 18.4222 57.4428 19.3842C56.3146 20.3383 55.0443 20.8159 53.629 20.8159C51.9662 20.8159 50.4242 20.1788 49.0022 18.9027C47.4805 17.5299 46.7187 15.7811 46.7187 13.6581C46.7187 11.6019 47.4022 9.89075 48.7673 8.52576C50.1323 7.13553 51.8241 6.43945 53.8378 6.43945C56.0845 6.43945 57.989 7.48163 59.5522 9.56302L61.5997 7.60059C60.4078 6.2345 59.1945 5.24847 57.96 4.6394C56.6684 4.03033 55.2783 3.72583 53.7895 3.72583C51.0169 3.72583 48.6648 4.69257 46.7313 6.62512C44.7978 8.55084 43.832 10.8952 43.832 13.6581C43.832 16.365 44.7814 18.6852 46.682 20.6177C48.5826 22.5435 50.8651 23.5063 53.5304 23.5063C56.2614 23.5063 58.511 22.5106 60.2792 20.5191C61.0613 19.6307 61.6172 18.6765 61.9459 17.6566C62.2832 16.5555 62.4515 15.2881 62.4515 13.8563V13.227H54.5793V15.93ZM29.8762 23.1477H40.3895V20.4456H32.7513V14.0787H40.1671V11.3757H32.7513V6.79907H40.3895V4.09613H29.8762V23.1477ZM24.2014 0L24.1714 0.0560913V23.1042H21.2354V5.59164L12.6141 21.8493H11.5951L2.93697 5.50946V23.1042H0V0.00195312H0.0183563L0.0174103 0H2.95534L12.0978 16.9857H12.1123L21.2354 0.0512695V0.00195312H21.2625L21.2635 0H24.2014Z" fill="white"/>
<path d="M19.1468 37.8139C19.1468 38.2122 19.1816 38.507 19.2522 38.6985C19.3218 38.8899 19.4426 39.0619 19.6128 39.2128H17.4473C17.6135 39.0619 17.7324 38.8899 17.8049 38.6985C17.8775 38.507 17.9132 38.2122 17.9132 37.8139V32.7027C17.9132 32.3044 17.8775 32.0115 17.8049 31.821C17.7324 31.6325 17.6135 31.4634 17.4473 31.3154H19.6128C19.4426 31.4634 19.3218 31.6325 19.2522 31.821C19.1816 32.0115 19.1468 32.3044 19.1468 32.7027V34.4709H23.4053V32.7027C23.4053 32.3044 23.3705 32.0115 23.2999 31.821C23.2303 31.6325 23.1104 31.4634 22.9393 31.3154H25.1058C24.9385 31.4634 24.8196 31.6325 24.7471 31.821C24.6746 32.0115 24.6398 32.3044 24.6398 32.7027V37.8139C24.6398 38.2122 24.6746 38.507 24.7442 38.6985C24.8148 38.8899 24.9347 39.0619 25.1058 39.2128H22.9393C23.1104 39.0619 23.2303 38.8899 23.2999 38.6985C23.3705 38.507 23.4053 38.2122 23.4053 37.8139V35.3806H19.1468V37.8139Z" fill="white"/>
<path d="M32.9203 31.9691C32.0406 31.9691 31.3165 32.2707 30.7452 32.873C30.1758 33.4762 29.8896 34.2457 29.8896 35.1815C29.8896 36.1483 30.1729 36.9507 30.7375 37.5897C31.3021 38.2286 32.0068 38.5477 32.8527 38.5477C33.7276 38.5477 34.4507 38.2461 35.0211 37.6409C35.5915 37.0367 35.8767 36.2643 35.8767 35.3236C35.8767 34.3569 35.5944 33.5565 35.0298 32.9213C34.4652 32.2871 33.7624 31.9691 32.9203 31.9691ZM32.8749 39.4004C32.2727 39.4004 31.7052 39.3037 31.1715 39.1104C30.6389 38.917 30.1816 38.6405 29.7988 38.2809C29.3966 37.9019 29.0872 37.4553 28.8698 36.942C28.6512 36.4277 28.543 35.8892 28.543 35.3236C28.543 34.8809 28.6116 34.4507 28.7498 34.033C28.8881 33.6164 29.0901 33.2278 29.355 32.8681C29.7688 32.3103 30.2792 31.882 30.8883 31.5833C31.4964 31.2836 32.1586 31.1338 32.8749 31.1338C33.4888 31.1338 34.0621 31.2295 34.5948 31.4209C35.1275 31.6123 35.5847 31.8879 35.9676 32.2484C36.3774 32.6274 36.6897 33.075 36.9062 33.5932C37.1218 34.1104 37.2301 34.6682 37.2301 35.2676C37.2301 35.8167 37.1083 36.3552 36.8666 36.882C36.6239 37.4089 36.2827 37.8748 35.8428 38.2809C35.4484 38.6483 34.9989 38.9267 34.4952 39.1161C33.9906 39.3056 33.4511 39.4004 32.8749 39.4004Z" fill="white"/>
<path d="M43.7496 37.8139C43.7496 38.2122 43.7854 38.507 43.8569 38.6985C43.9294 38.8899 44.0484 39.0619 44.2156 39.2128H42.0491C42.2202 39.0619 42.3401 38.8899 42.4097 38.6985C42.4803 38.507 42.5151 38.2122 42.5151 37.8139V32.1797H41.878C41.4391 32.1797 41.0824 32.2136 40.8098 32.2822C40.5372 32.3499 40.3187 32.4601 40.1562 32.6118L40.5478 31.3154H46.1945L45.8242 32.5896C45.7073 32.4494 45.5526 32.346 45.3612 32.2793C45.1698 32.2126 44.9281 32.1797 44.6362 32.1797H43.7496V37.8139Z" fill="white"/>
<path d="M49.332 39.2128C49.4983 39.0619 49.6182 38.8899 49.6897 38.6985C49.7622 38.507 49.798 38.2122 49.798 37.8139V32.7027C49.798 32.3054 49.7622 32.0115 49.6897 31.822C49.6182 31.6325 49.4983 31.4634 49.332 31.3154H53.6591V32.5548C53.4649 32.404 53.2531 32.2928 53.0221 32.2251C52.7901 32.1565 52.5232 32.1227 52.2197 32.1227C52.065 32.1227 51.89 32.1352 51.6967 32.1594C51.5043 32.1845 51.2858 32.2213 51.0432 32.2706V34.4999H52.9766V35.6484C52.8857 35.542 52.762 35.4666 52.6064 35.4231C52.4517 35.3806 52.1674 35.3583 51.7537 35.3583H51.0432V38.189C51.3428 38.2344 51.6135 38.2692 51.8562 38.2914C52.0988 38.3147 52.3086 38.3253 52.4875 38.3253C52.8886 38.3253 53.2676 38.2721 53.6243 38.1638C53.9811 38.0555 54.331 37.8903 54.6762 37.666L54.1251 39.2128H49.332Z" fill="white"/>
<path d="M57.7832 39.2128C57.9495 39.0619 58.0693 38.8899 58.1409 38.6985C58.2134 38.507 58.2491 38.2122 58.2491 37.8139V32.7027C58.2491 32.3054 58.2134 32.0115 58.1409 31.822C58.0693 31.6325 57.9495 31.4634 57.7832 31.3154H59.9497C59.7786 31.4634 59.6577 31.6325 59.5881 31.822C59.5175 32.0115 59.4828 32.3054 59.4828 32.7027V38.189C59.7901 38.2344 60.0647 38.2692 60.3074 38.2914C60.55 38.3147 60.7608 38.3253 60.9387 38.3253C61.3369 38.3253 61.7159 38.2721 62.0755 38.1638C62.4352 38.0555 62.7861 37.8903 63.1273 37.666L62.5764 39.2128H57.7832Z" fill="white"/>
<path d="M66.1104 39.0371L65.7344 37.6044C66.1935 37.9109 66.6383 38.14 67.0714 38.2889C67.5025 38.4387 67.9308 38.5141 68.3562 38.5141C68.8976 38.5141 69.3336 38.3971 69.6632 38.1642C69.9929 37.9312 70.1582 37.6295 70.1582 37.2574C70.1582 37.151 70.1408 37.0446 70.1069 36.9383C70.0731 36.8329 70.0238 36.7324 69.959 36.6377C69.815 36.4221 69.3316 36.1127 68.5099 35.7105C68.3011 35.6129 68.1396 35.5346 68.0266 35.4776C67.257 35.0909 66.7281 34.7351 66.443 34.4084C66.1559 34.0826 66.0128 33.6958 66.0128 33.2492C66.0128 32.6083 66.2747 32.0998 66.7978 31.7218C67.3208 31.3448 68.0371 31.1562 68.9468 31.1562C69.2089 31.1562 69.4969 31.1736 69.8111 31.2075C70.1253 31.2423 70.4675 31.2954 70.8349 31.367V32.6924C70.5081 32.4458 70.1814 32.2622 69.8508 32.1404C69.5211 32.0196 69.1779 31.9586 68.8221 31.9586C68.3707 31.9586 68.0081 32.0553 67.7336 32.2487C67.4581 32.442 67.3208 32.6934 67.3208 33.0046C67.3208 33.2811 67.4291 33.5257 67.6456 33.7374C67.8612 33.9501 68.3465 34.2343 69.1005 34.5911C69.1422 34.6104 69.2069 34.6404 69.2939 34.6819C69.931 34.9739 70.4067 35.2426 70.7208 35.4892C70.9557 35.6709 71.1385 35.8923 71.2699 36.1543C71.4005 36.4162 71.4661 36.6947 71.4661 36.9905C71.4661 37.6692 71.1549 38.2434 70.5333 38.7152C69.9116 39.1879 69.1354 39.4238 68.2025 39.4238C67.9028 39.4238 67.5809 39.3909 67.2358 39.3271C66.8906 39.2624 66.5155 39.1657 66.1104 39.0371Z" fill="white"/>
<path d="M83.0949 33.8231C83.3569 33.6482 83.5512 33.4644 83.6808 33.2682C83.8093 33.0729 83.8741 32.866 83.8741 32.6456C83.8741 32.4262 83.7977 32.2454 83.6469 32.1024C83.4951 31.9612 83.2999 31.8896 83.0611 31.8896C82.8446 31.8896 82.6647 31.9612 82.5207 32.1024C82.3766 32.2454 82.3042 32.4223 82.3042 32.634C82.3042 32.7897 82.367 32.9627 82.4926 33.1522C82.6173 33.3417 82.8185 33.565 83.0949 33.8231ZM85.2266 37.4783L82.8958 35.1814C82.5168 35.4888 82.2403 35.7846 82.0663 36.0688C81.8914 36.3531 81.8044 36.6489 81.8044 36.9553C81.8044 37.3991 81.9551 37.7703 82.2558 38.0671C82.5574 38.3649 82.9335 38.5138 83.3849 38.5138C83.7446 38.5138 84.0733 38.4306 84.3681 38.2633C84.6639 38.0971 84.9501 37.8351 85.2266 37.4783ZM82.162 34.4592C81.8556 34.1218 81.6274 33.8134 81.4775 33.5331C81.3277 33.2527 81.2533 32.9907 81.2533 32.7481C81.2533 32.3015 81.436 31.9264 81.8014 31.6228C82.1668 31.3192 82.6251 31.1675 83.1742 31.1675C83.6411 31.1675 84.0365 31.3202 84.3623 31.6257C84.6891 31.9302 84.8515 32.3015 84.8515 32.7375C84.8515 33.0284 84.7635 33.3233 84.5876 33.6211C84.4106 33.9188 84.1467 34.2234 83.7939 34.5337L86.5752 37.1999C86.8584 37.4696 87.2432 37.779 87.7285 38.1299C88.2138 38.4809 88.761 38.8415 89.372 39.2127H88.2863C87.8271 39.2127 87.4046 39.1208 87.018 38.9371C86.6313 38.7535 86.2204 38.4451 85.7844 38.013C85.4132 38.4722 85.0052 38.8163 84.5615 39.0454C84.1187 39.2745 83.6363 39.3896 83.1172 39.3896C82.3747 39.3896 81.756 39.1644 81.261 38.7148C80.767 38.2663 80.5195 37.7065 80.5195 37.0356C80.5195 36.6112 80.6481 36.1955 80.9062 35.7904C81.1634 35.3844 81.5829 34.9407 82.162 34.4592Z" fill="white"/>
<path d="M98.6302 37.8139C98.6302 38.2122 98.665 38.507 98.7356 38.6985C98.8052 38.8899 98.926 39.0619 99.0962 39.2128H96.9297C97.0969 39.0619 97.2158 38.8899 97.2883 38.6985C97.3599 38.507 97.3966 38.2122 97.3966 37.8139V32.7027C97.3966 32.3044 97.3599 32.0115 97.2883 31.821C97.2158 31.6325 97.0969 31.4634 96.9297 31.3154H99.6646C100.446 31.3154 101.076 31.501 101.556 31.8723C102.035 32.2444 102.275 32.7278 102.275 33.3224C102.275 33.7545 102.131 34.1354 101.843 34.4651C101.555 34.7947 101.107 35.0848 100.501 35.3351L102.553 38.07C102.674 38.2334 102.821 38.4055 102.991 38.5873C103.161 38.769 103.357 38.9595 103.577 39.1567L102.962 39.2128H102.866C102.577 39.2128 102.297 39.1373 102.024 38.9856C101.752 38.8338 101.52 38.625 101.331 38.3601L98.9772 35.1138C99.6781 34.9581 100.19 34.7445 100.515 34.4738C100.839 34.2031 101.002 33.8531 101.002 33.4249C101.002 33.0266 100.861 32.7027 100.583 32.4523C100.305 32.202 99.9402 32.0772 99.4886 32.0772C99.3861 32.0772 99.2624 32.0859 99.1194 32.1033C98.9743 32.1198 98.8119 32.1458 98.6302 32.1797V37.8139Z" fill="white"/>
<path d="M106.303 39.2128C106.47 39.0619 106.589 38.8899 106.661 38.6985C106.733 38.507 106.77 38.2122 106.77 37.8139V32.7027C106.77 32.3054 106.733 32.0115 106.661 31.822C106.589 31.6325 106.47 31.4634 106.303 31.3154H110.63V32.5548C110.437 32.404 110.224 32.2928 109.994 32.2251C109.762 32.1565 109.495 32.1227 109.191 32.1227C109.036 32.1227 108.862 32.1352 108.668 32.1594C108.475 32.1845 108.257 32.2213 108.015 32.2706V34.4999H109.947V35.6484C109.857 35.542 109.734 35.4666 109.578 35.4231C109.422 35.3806 109.138 35.3583 108.725 35.3583H108.015V38.189C108.314 38.2344 108.585 38.2692 108.828 38.2914C109.071 38.3147 109.28 38.3253 109.459 38.3253C109.86 38.3253 110.239 38.2721 110.596 38.1638C110.952 38.0555 111.303 37.8903 111.648 37.666L111.096 39.2128H106.303Z" fill="white"/>
<path d="M114.733 39.0371L114.357 37.6044C114.816 37.9109 115.261 38.14 115.694 38.2889C116.126 38.4387 116.554 38.5141 116.978 38.5141C117.521 38.5141 117.957 38.3971 118.286 38.1642C118.616 37.9312 118.781 37.6295 118.781 37.2574C118.781 37.151 118.764 37.0446 118.73 36.9383C118.696 36.8329 118.646 36.7324 118.582 36.6377C118.438 36.4221 117.955 36.1127 117.132 35.7105C116.923 35.6129 116.763 35.5346 116.649 35.4776C115.879 35.0909 115.351 34.7351 115.065 34.4084C114.779 34.0826 114.636 33.6958 114.636 33.2492C114.636 32.6083 114.898 32.0998 115.421 31.7218C115.944 31.3448 116.66 31.1562 117.57 31.1562C117.832 31.1562 118.119 31.1736 118.434 31.2075C118.748 31.2423 119.09 31.2954 119.457 31.367V32.6924C119.131 32.4458 118.803 32.2622 118.474 32.1404C118.144 32.0196 117.801 31.9586 117.444 31.9586C116.994 31.9586 116.63 32.0553 116.356 32.2487C116.081 32.442 115.944 32.6934 115.944 33.0046C115.944 33.2811 116.052 33.5257 116.268 33.7374C116.483 33.9501 116.97 34.2343 117.724 34.5911C117.765 34.6104 117.829 34.6404 117.917 34.6819C118.553 34.9739 119.029 35.2426 119.344 35.4892C119.579 35.6709 119.762 35.8923 119.893 36.1543C120.024 36.4162 120.088 36.6947 120.088 36.9905C120.088 37.6692 119.778 38.2434 119.156 38.7152C118.534 39.1879 117.757 39.4238 116.825 39.4238C116.526 39.4238 116.203 39.3909 115.859 39.3271C115.514 39.2624 115.138 39.1657 114.733 39.0371Z" fill="white"/>
<path d="M127.642 31.9691C126.762 31.9691 126.037 32.2707 125.467 32.873C124.896 33.4762 124.611 34.2457 124.611 35.1815C124.611 36.1483 124.894 36.9507 125.459 37.5897C126.024 38.2286 126.728 38.5477 127.574 38.5477C128.449 38.5477 129.172 38.2461 129.743 37.6409C130.313 37.0367 130.598 36.2643 130.598 35.3236C130.598 34.3569 130.316 33.5565 129.751 32.9213C129.186 32.2871 128.484 31.9691 127.642 31.9691ZM127.597 39.4004C126.994 39.4004 126.426 39.3037 125.893 39.1104C125.361 38.917 124.903 38.6405 124.52 38.2809C124.118 37.9019 123.809 37.4553 123.59 36.942C123.373 36.4277 123.264 35.8892 123.264 35.3236C123.264 34.8809 123.333 34.4507 123.471 34.033C123.61 33.6164 123.812 33.2278 124.077 32.8681C124.49 32.3103 125.001 31.882 125.609 31.5833C126.218 31.2836 126.88 31.1338 127.597 31.1338C128.211 31.1338 128.784 31.2295 129.316 31.4209C129.848 31.6123 130.306 31.8879 130.689 32.2484C131.099 32.6274 131.411 33.075 131.628 33.5932C131.844 34.1104 131.952 34.6682 131.952 35.2676C131.952 35.8167 131.83 36.3552 131.588 36.882C131.346 37.4089 131.004 37.8748 130.564 38.2809C130.17 38.6483 129.721 38.9267 129.217 39.1161C128.712 39.3056 128.173 39.4004 127.597 39.4004Z" fill="white"/>
<path d="M137.079 37.8139C137.079 38.2122 137.114 38.507 137.184 38.6985C137.254 38.8899 137.374 39.0619 137.545 39.2128H135.379C135.546 39.0619 135.665 38.8899 135.737 38.6985C135.809 38.507 135.845 38.2122 135.845 37.8139V32.7027C135.845 32.3044 135.809 32.0115 135.737 31.821C135.665 31.6325 135.546 31.4634 135.379 31.3154H138.114C138.895 31.3154 139.524 31.501 140.005 31.8723C140.483 32.2444 140.724 32.7278 140.724 33.3224C140.724 33.7545 140.579 34.1354 140.292 34.4651C140.003 34.7947 139.556 35.0848 138.95 35.3351L141.002 38.07C141.123 38.2334 141.269 38.4055 141.439 38.5873C141.611 38.769 141.806 38.9595 142.025 39.1567L141.411 39.2128H141.315C141.027 39.2128 140.746 39.1373 140.474 38.9856C140.2 38.8338 139.969 38.625 139.78 38.3601L137.426 35.1138C138.127 34.9581 138.64 34.7445 138.964 34.4738C139.287 34.2031 139.45 33.8531 139.45 33.4249C139.45 33.0266 139.311 32.7027 139.032 32.4523C138.754 32.202 138.388 32.0772 137.938 32.0772C137.835 32.0772 137.712 32.0859 137.569 32.1033C137.424 32.1198 137.261 32.1458 137.079 32.1797V37.8139Z" fill="white"/>
<path d="M147.64 37.8139C147.64 38.2122 147.676 38.507 147.748 38.6985C147.819 38.8899 147.939 39.0619 148.106 39.2128H145.94C146.111 39.0619 146.231 38.8899 146.3 38.6985C146.371 38.507 146.406 38.2122 146.406 37.8139V32.1797H145.769C145.329 32.1797 144.973 32.2136 144.7 32.2822C144.428 32.3499 144.209 32.4601 144.047 32.6118L144.438 31.3154H150.085L149.715 32.5896C149.598 32.4494 149.443 32.346 149.252 32.2793C149.06 32.2126 148.819 32.1797 148.527 32.1797H147.64V37.8139Z" fill="white"/>
<path d="M153.197 39.0371L152.822 37.6044C153.28 37.9109 153.726 38.14 154.158 38.2889C154.59 38.4387 155.019 38.5141 155.443 38.5141C155.985 38.5141 156.421 38.3971 156.751 38.1642C157.081 37.9312 157.246 37.6295 157.246 37.2574C157.246 37.151 157.229 37.0446 157.195 36.9383C157.161 36.8329 157.111 36.7324 157.047 36.6377C156.903 36.4221 156.42 36.1127 155.597 35.7105C155.389 35.6129 155.228 35.5346 155.113 35.4776C154.344 35.0909 153.816 34.7351 153.53 34.4084C153.244 34.0826 153.101 33.6958 153.101 33.2492C153.101 32.6083 153.363 32.0998 153.886 31.7218C154.409 31.3448 155.125 31.1562 156.035 31.1562C156.297 31.1562 156.584 31.1736 156.899 31.2075C157.213 31.2423 157.554 31.2954 157.922 31.367V32.6924C157.596 32.4458 157.268 32.2622 156.939 32.1404C156.609 32.0196 156.266 31.9586 155.91 31.9586C155.459 31.9586 155.095 32.0553 154.821 32.2487C154.546 32.442 154.409 32.6934 154.409 33.0046C154.409 33.2811 154.517 33.5257 154.733 33.7374C154.948 33.9501 155.434 34.2343 156.189 34.5911C156.23 34.6104 156.294 34.6404 156.382 34.6819C157.018 34.9739 157.494 35.2426 157.809 35.4892C158.044 35.6709 158.226 35.8923 158.358 36.1543C158.488 36.4162 158.553 36.6947 158.553 36.9905C158.553 37.6692 158.243 38.2434 157.621 38.7152C156.999 39.1879 156.222 39.4238 155.29 39.4238C154.991 39.4238 154.668 39.3909 154.324 39.3271C153.979 39.2624 153.602 39.1657 153.197 39.0371Z" fill="white"/>
</svg>
