<svg width="40" height="40" viewBox="0 0 40 40" fill="none" xmlns="http://www.w3.org/2000/svg">
<mask id="path-1-inside-1_107_2105" fill="white">
<path d="M20 2.5C29.665 2.5 37.5 10.335 37.5 20C37.5 29.665 29.665 37.5 20 37.5C10.335 37.5 2.5 29.665 2.5 20C2.5 10.335 10.335 2.5 20 2.5Z"/>
</mask>
<path d="M20 2.5V4.0625C28.802 4.0625 35.9375 11.198 35.9375 20H37.5H39.0625C39.0625 9.47207 30.5279 0.9375 20 0.9375V2.5ZM37.5 20H35.9375C35.9375 28.802 28.802 35.9375 20 35.9375V37.5V39.0625C30.5279 39.0625 39.0625 30.5279 39.0625 20H37.5ZM20 37.5V35.9375C11.198 35.9375 4.0625 28.802 4.0625 20H2.5H0.9375C0.9375 30.5279 9.47207 39.0625 20 39.0625V37.5ZM2.5 20H4.0625C4.0625 11.198 11.198 4.0625 20 4.0625V2.5V0.9375C9.47207 0.9375 0.9375 9.47207 0.9375 20H2.5Z" fill="#0C4B90" mask="url(#path-1-inside-1_107_2105)"/>
<path d="M19.167 11.6665V17.0115C18.0131 16.7973 16.8212 16.944 15.7537 17.4316C14.6862 17.9192 13.7949 18.724 13.2012 19.7364C12.6075 20.7488 12.3403 21.9196 12.436 23.0893C12.5317 24.259 12.9855 25.3708 13.7358 26.2732C14.4861 27.1757 15.4963 27.825 16.6288 28.1327C17.7614 28.4403 18.9613 28.3915 20.0651 27.9927C21.1688 27.5939 22.1229 26.8645 22.7972 25.904C23.4716 24.9435 23.8335 23.7984 23.8337 22.6248V19.5115C24.7295 19.8925 25.6935 20.087 26.667 20.0832H27.5003V15.4165H26.667C25.0812 15.4165 23.8337 14.1357 23.8337 12.4998V11.6665H19.167ZM20.8337 13.3332H22.2403C22.5687 15.1832 23.9737 16.6632 25.8337 17.0082V18.3565C24.9687 18.2298 24.1878 17.9048 23.4645 17.4207L22.167 16.5523V22.6248C22.1669 23.4331 21.9245 24.2227 21.4711 24.8918C21.0177 25.5609 20.3741 26.0786 19.6235 26.3782C18.8728 26.6778 18.0496 26.7455 17.2601 26.5724C16.4706 26.3994 15.7511 25.9937 15.1946 25.4076C14.638 24.8215 14.27 24.082 14.1379 23.2847C14.0059 22.4873 14.116 21.6687 14.454 20.9345C14.7919 20.2003 15.3422 19.5843 16.0338 19.1661C16.7254 18.7478 17.5265 18.5465 18.3337 18.5882V19.9248C17.7907 19.8829 17.2478 20.0057 16.7756 20.2771C16.3035 20.5485 15.9242 20.9558 15.6871 21.4461C15.45 21.9363 15.3663 22.4867 15.4467 23.0252C15.5272 23.5638 15.7681 24.0656 16.1381 24.4652C16.508 24.8648 16.9899 25.1435 17.5207 25.2651C18.0515 25.3867 18.6066 25.3454 19.1136 25.1467C19.6206 24.948 20.056 24.6011 20.3628 24.1512C20.6696 23.7013 20.8337 23.1694 20.8337 22.6248V13.3332ZM17.0837 22.6248C17.0837 22.3486 17.1934 22.0836 17.3888 21.8883C17.5841 21.6929 17.8491 21.5832 18.1253 21.5832C18.4016 21.5832 18.6665 21.6929 18.8619 21.8883C19.0572 22.0836 19.167 22.3486 19.167 22.6248C19.167 22.9011 19.0572 23.1661 18.8619 23.3614C18.6665 23.5568 18.4016 23.6665 18.1253 23.6665C17.8491 23.6665 17.5841 23.5568 17.3888 23.3614C17.1934 23.1661 17.0837 22.9011 17.0837 22.6248Z" fill="#0C4B90"/>
</svg>
