<svg width="40" height="40" viewBox="0 0 40 40" fill="none" xmlns="http://www.w3.org/2000/svg">
<mask id="path-1-inside-1_107_2106" fill="white">
<path d="M20 2.5C29.665 2.5 37.5 10.335 37.5 20C37.5 29.665 29.665 37.5 20 37.5C10.335 37.5 2.5 29.665 2.5 20C2.5 10.335 10.335 2.5 20 2.5Z"/>
</mask>
<path d="M20 2.5V4.0625C28.802 4.0625 35.9375 11.198 35.9375 20H37.5H39.0625C39.0625 9.47207 30.5279 0.9375 20 0.9375V2.5ZM37.5 20H35.9375C35.9375 28.802 28.802 35.9375 20 35.9375V37.5V39.0625C30.5279 39.0625 39.0625 30.5279 39.0625 20H37.5ZM20 37.5V35.9375C11.198 35.9375 4.0625 28.802 4.0625 20H2.5H0.9375C0.9375 30.5279 9.47207 39.0625 20 39.0625V37.5ZM2.5 20H4.0625C4.0625 11.198 11.198 4.0625 20 4.0625V2.5V0.9375C9.47207 0.9375 0.9375 9.47207 0.9375 20H2.5Z" fill="#0C4B90" mask="url(#path-1-inside-1_107_2106)"/>
<path d="M16.6374 15.1691C16.4825 15.1465 16.3245 15.1777 16.1899 15.2575H16.1782C15.8657 15.4408 15.584 15.6716 15.344 15.9433C15.144 16.1741 15.0357 16.4075 15.0074 16.6325C14.9907 16.7658 15.0024 16.9008 15.0415 17.0283L15.0565 17.0366C15.2815 17.6975 15.5749 18.3333 15.9332 18.9316C16.3955 19.7719 16.964 20.5492 17.6249 21.2441L17.6449 21.2725L17.6765 21.2958L17.6957 21.3183L17.719 21.3383C18.4165 22.0011 19.1956 22.5724 20.0374 23.0383C20.9999 23.5625 21.584 23.81 21.9349 23.9133V23.9183C22.0374 23.95 22.1307 23.9641 22.2249 23.9641C22.5238 23.9427 22.8068 23.8212 23.0282 23.6191C23.299 23.3791 23.5282 23.0966 23.7065 22.7825V22.7766C23.874 22.46 23.8174 22.1616 23.5757 21.9591C23.0907 21.5345 22.5657 21.1577 22.0082 20.8341C21.6349 20.6316 21.2557 20.7541 21.1024 20.9591L20.7749 21.3725C20.6065 21.5775 20.3015 21.5491 20.3015 21.5491L20.2932 21.5541C18.0174 20.9733 17.4099 18.6691 17.4099 18.6691C17.4099 18.6691 17.3815 18.3558 17.5924 18.1958L18.0024 17.8658C18.199 17.7058 18.3357 17.3275 18.1249 16.9541C17.802 16.397 17.4261 15.8723 17.0024 15.3875C16.9097 15.2736 16.7799 15.196 16.6357 15.1683M20.4832 14.1675C20.3727 14.1675 20.2667 14.2114 20.1886 14.2895C20.1104 14.3677 20.0665 14.4736 20.0665 14.5841C20.0665 14.6947 20.1104 14.8006 20.1886 14.8788C20.2667 14.9569 20.3727 15.0008 20.4832 15.0008C21.5365 15.0008 22.4115 15.345 23.104 16.005C23.4599 16.3658 23.7374 16.7933 23.919 17.2616C24.1015 17.7308 24.1849 18.2316 24.1632 18.7333C24.1586 18.8438 24.198 18.9516 24.2729 19.0331C24.3477 19.1145 24.4519 19.1628 24.5624 19.1675C24.6729 19.1721 24.7807 19.1327 24.8621 19.0578C24.9436 18.983 24.9919 18.8788 24.9965 18.7683C25.0214 18.1513 24.919 17.5357 24.6957 16.96C24.4714 16.3813 24.1298 15.8553 23.6924 15.415L23.684 15.4066C22.8249 14.5858 21.7382 14.1675 20.4832 14.1675Z" fill="#0C4B90"/>
<path d="M20.4548 15.5355C20.3442 15.5355 20.2383 15.5794 20.1601 15.6575C20.082 15.7357 20.0381 15.8417 20.0381 15.9522C20.0381 16.0627 20.082 16.1687 20.1601 16.2468C20.2383 16.3249 20.3442 16.3688 20.4548 16.3688H20.4689C21.2289 16.423 21.7823 16.6763 22.1698 17.0922C22.5673 17.5205 22.7731 18.053 22.7573 18.7113C22.7547 18.8218 22.7962 18.9288 22.8725 19.0088C22.9489 19.0887 23.0538 19.135 23.1643 19.1376C23.2748 19.1401 23.3818 19.0987 23.4618 19.0223C23.5417 18.946 23.588 18.841 23.5906 18.7305C23.6106 17.8663 23.3323 17.1205 22.7806 16.5255V16.5238C22.2164 15.9188 21.4423 15.5988 20.5106 15.5363L20.4964 15.5347L20.4548 15.5355Z" fill="#0C4B90"/>
<path d="M20.4386 16.9328C20.3829 16.9278 20.3267 16.9342 20.2735 16.9515C20.2202 16.9688 20.171 16.9966 20.1287 17.0333C20.0865 17.07 20.0521 17.1149 20.0275 17.1652C20.003 17.2155 19.9888 17.2702 19.9859 17.3261C19.983 17.382 19.9914 17.438 20.0106 17.4905C20.0297 17.5431 20.0593 17.5913 20.0975 17.6322C20.1357 17.6731 20.1818 17.7059 20.233 17.7286C20.2841 17.7514 20.3393 17.7635 20.3953 17.7644C20.7436 17.7828 20.9661 17.8878 21.1061 18.0286C21.247 18.1703 21.352 18.3978 21.3711 18.7536C21.3722 18.8095 21.3845 18.8646 21.4073 18.9157C21.4301 18.9668 21.4629 19.0127 21.5039 19.0508C21.5448 19.0889 21.593 19.1184 21.6455 19.1375C21.6981 19.1566 21.754 19.1649 21.8098 19.1619C21.8657 19.159 21.9204 19.1448 21.9706 19.1202C22.0209 19.0957 22.0657 19.0613 22.1023 19.0191C22.139 18.9768 22.1668 18.9277 22.1841 18.8745C22.2013 18.8213 22.2077 18.7651 22.2028 18.7094C22.1761 18.2094 22.0195 17.7678 21.6986 17.4428C21.3761 17.1178 20.937 16.9594 20.4386 16.9328Z" fill="#0C4B90"/>
<path fill-rule="evenodd" clip-rule="evenodd" d="M15.8895 11.9875C18.5412 11.3948 21.2911 11.3948 23.9428 11.9875L24.2253 12.05C25.0003 12.2238 25.712 12.6087 26.2815 13.1622C26.8511 13.7157 27.2562 14.4162 27.452 15.1859C28.1257 17.8382 28.1257 20.6169 27.452 23.2692C27.2562 24.0389 26.8511 24.7393 26.2815 25.2928C25.712 25.8463 25.0003 26.2313 24.2253 26.405L23.942 26.4675C22.2811 26.8384 20.5769 26.9783 18.8778 26.8834L16.667 28.8617C16.5836 28.9363 16.4818 28.9872 16.372 29.009C16.2623 29.0309 16.1487 29.0229 16.0432 28.9858C15.9376 28.9488 15.8439 28.8841 15.7719 28.7985C15.6998 28.7129 15.6521 28.6095 15.6336 28.4992L15.2678 26.3142C14.5665 26.0956 13.9329 25.7009 13.4274 25.1678C12.9219 24.6348 12.5614 23.9811 12.3803 23.2692C11.7066 20.6169 11.7066 17.8382 12.3803 15.1859C12.5761 14.4162 12.9812 13.7157 13.5507 13.1622C14.1203 12.6087 14.832 12.2238 15.607 12.05L15.8895 11.9875ZM23.6703 13.2067C21.198 12.654 18.6342 12.654 16.162 13.2067L15.8786 13.27C15.3294 13.3935 14.8251 13.6666 14.4215 14.059C14.0179 14.4514 13.7308 14.9478 13.592 15.4934C12.9695 17.9439 12.9695 20.5112 13.592 22.9617C13.7309 23.5073 14.0181 24.0038 14.4219 24.3963C14.8256 24.7887 15.3301 25.0617 15.8795 25.185L15.9545 25.2017C16.0758 25.2288 16.1863 25.2915 16.2718 25.3818C16.3573 25.472 16.4139 25.5857 16.4345 25.7084L16.6795 27.1734L18.2395 25.7775C18.3018 25.7216 18.3746 25.6788 18.4538 25.6516C18.533 25.6244 18.6168 25.6134 18.7003 25.6192C20.3662 25.7368 22.0403 25.6119 23.6703 25.2484L23.9528 25.185C24.5021 25.0617 25.0066 24.7887 25.4104 24.3963C25.8141 24.0038 26.1014 23.5073 26.2403 22.9617C26.862 20.5117 26.862 17.9442 26.2403 15.4934C26.1014 14.9477 25.8141 14.4512 25.4104 14.0588C25.0066 13.6664 24.5021 13.3934 23.9528 13.27L23.6703 13.2067Z" fill="#0C4B90"/>
</svg>
