<svg width="40" height="40" viewBox="0 0 40 40" fill="none" xmlns="http://www.w3.org/2000/svg">
<mask id="path-1-inside-1_107_2104" fill="white">
<path d="M20 2.5C29.665 2.5 37.5 10.335 37.5 20C37.5 29.665 29.665 37.5 20 37.5C10.335 37.5 2.5 29.665 2.5 20C2.5 10.335 10.335 2.5 20 2.5Z"/>
</mask>
<path d="M20 2.5V4.0625C28.802 4.0625 35.9375 11.198 35.9375 20H37.5H39.0625C39.0625 9.47207 30.5279 0.9375 20 0.9375V2.5ZM37.5 20H35.9375C35.9375 28.802 28.802 35.9375 20 35.9375V37.5V39.0625C30.5279 39.0625 39.0625 30.5279 39.0625 20H37.5ZM20 37.5V35.9375C11.198 35.9375 4.0625 28.802 4.0625 20H2.5H0.9375C0.9375 30.5279 9.47207 39.0625 20 39.0625V37.5ZM2.5 20H4.0625C4.0625 11.198 11.198 4.0625 20 4.0625V2.5V0.9375C9.47207 0.9375 0.9375 9.47207 0.9375 20H2.5Z" fill="#0C4B90" mask="url(#path-1-inside-1_107_2104)"/>
<path d="M25.8757 14.0925C25.1115 13.3209 24.2015 12.7092 23.1986 12.2928C22.1956 11.8765 21.1199 11.6639 20.034 11.6675C15.484 11.6675 11.7757 15.3759 11.7757 19.9259C11.7757 21.3842 12.159 22.8009 12.8757 24.0509L11.709 28.3342L16.084 27.1842C17.2923 27.8425 18.6507 28.1925 20.034 28.1925C24.584 28.1925 28.2923 24.4842 28.2923 19.9342C28.2923 17.7259 27.434 15.6509 25.8757 14.0925ZM20.034 26.7925C18.8007 26.7925 17.5923 26.4592 16.534 25.8342L16.284 25.6842L13.684 26.3675L14.3757 23.8342L14.209 23.5759C13.5236 22.4817 13.1598 21.2169 13.159 19.9259C13.159 16.1425 16.2423 13.0592 20.0257 13.0592C21.859 13.0592 23.584 13.7759 24.8757 15.0759C25.5153 15.7124 26.0223 16.4696 26.367 17.3036C26.7118 18.1376 26.8875 19.0318 26.884 19.9342C26.9007 23.7175 23.8173 26.7925 20.034 26.7925ZM23.8007 21.6592C23.5923 21.5592 22.5757 21.0592 22.3923 20.9842C22.2007 20.9175 22.0673 20.8842 21.9257 21.0842C21.784 21.2925 21.3923 21.7592 21.2757 21.8925C21.159 22.0342 21.034 22.0509 20.8257 21.9425C20.6173 21.8425 19.9507 21.6175 19.1673 20.9175C18.5507 20.3675 18.1423 19.6925 18.0173 19.4842C17.9007 19.2759 18.0007 19.1675 18.109 19.0592C18.2007 18.9675 18.3173 18.8175 18.4173 18.7009C18.5173 18.5842 18.559 18.4925 18.6257 18.3592C18.6923 18.2175 18.659 18.1009 18.609 18.0009C18.559 17.9009 18.1423 16.8842 17.9757 16.4675C17.809 16.0675 17.634 16.1175 17.509 16.1092H17.109C16.9673 16.1092 16.7507 16.1592 16.559 16.3675C16.3757 16.5759 15.8423 17.0759 15.8423 18.0925C15.8423 19.1092 16.584 20.0925 16.684 20.2259C16.784 20.3675 18.1423 22.4509 20.209 23.3425C20.7007 23.5592 21.084 23.6842 21.384 23.7759C21.8757 23.9342 22.3257 23.9092 22.684 23.8592C23.084 23.8009 23.909 23.3592 24.0757 22.8759C24.2507 22.3925 24.2507 21.9842 24.1923 21.8925C24.134 21.8009 24.009 21.7592 23.8007 21.6592Z" fill="#0C4B90"/>
</svg>
