<svg width="40" height="40" viewBox="0 0 40 40" fill="none" xmlns="http://www.w3.org/2000/svg">
<mask id="path-1-inside-1_107_2108" fill="white">
<path d="M20 2.5C29.665 2.5 37.5 10.335 37.5 20C37.5 29.665 29.665 37.5 20 37.5C10.335 37.5 2.5 29.665 2.5 20C2.5 10.335 10.335 2.5 20 2.5ZM23.5947 13.75L20.4355 17.7451L17.7051 13.751H13.75L18.4756 20.5859L13.9971 26.25H15.915L19.3721 21.8799L22.3926 26.25H26.25L21.3232 19.0459L25.5107 13.75H23.5947ZM17.1279 14.9521L23.9834 24.9814H22.9219L15.9883 14.9521H17.1279Z"/>
</mask>
<path d="M23.5947 13.75V12.1875H22.8383L22.3691 12.7808L23.5947 13.75ZM20.4355 17.7451L19.1456 18.6269L20.344 20.3799L21.6612 18.7143L20.4355 17.7451ZM17.7051 13.751L18.995 12.8692L18.5296 12.1885H17.7051V13.751ZM13.75 13.751V12.1885H10.7701L12.4648 14.6396L13.75 13.751ZM18.4756 20.5859L19.7012 21.555L20.4182 20.6482L19.7608 19.6973L18.4756 20.5859ZM13.9971 26.25L12.7714 25.2809L10.7697 27.8125H13.9971V26.25ZM15.915 26.25V27.8125H16.6713L17.1405 27.2194L15.915 26.25ZM19.3721 21.8799L20.6574 20.9915L19.4568 19.2543L18.1466 20.9105L19.3721 21.8799ZM22.3926 26.25L21.1072 27.1384L21.5731 27.8125H22.3926V26.25ZM26.25 26.25V27.8125H29.2115L27.5397 25.368L26.25 26.25ZM21.3232 19.0459L20.0976 18.0768L19.3844 18.9788L20.0335 19.9279L21.3232 19.0459ZM25.5107 13.75L26.7364 14.7191L28.7382 12.1875H25.5107V13.75ZM17.1279 14.9521L18.4179 14.0704L17.9525 13.3896H17.1279V14.9521ZM23.9834 24.9814V26.5439H26.9441L25.2733 24.0997L23.9834 24.9814ZM22.9219 24.9814L21.6366 25.87L22.1025 26.5439H22.9219V24.9814ZM15.9883 14.9521V13.3896H13.0085L14.703 15.8407L15.9883 14.9521ZM20 2.5V4.0625C28.802 4.0625 35.9375 11.198 35.9375 20H37.5H39.0625C39.0625 9.47207 30.5279 0.9375 20 0.9375V2.5ZM37.5 20H35.9375C35.9375 28.802 28.802 35.9375 20 35.9375V37.5V39.0625C30.5279 39.0625 39.0625 30.5279 39.0625 20H37.5ZM20 37.5V35.9375C11.198 35.9375 4.0625 28.802 4.0625 20H2.5H0.9375C0.9375 30.5279 9.47207 39.0625 20 39.0625V37.5ZM2.5 20H4.0625C4.0625 11.198 11.198 4.0625 20 4.0625V2.5V0.9375C9.47207 0.9375 0.9375 9.47207 0.9375 20H2.5ZM23.5947 13.75L22.3691 12.7808L19.2099 16.776L20.4355 17.7451L21.6612 18.7143L24.8203 14.7192L23.5947 13.75ZM20.4355 17.7451L21.7254 16.8633L18.995 12.8692L17.7051 13.751L16.4152 14.6328L19.1456 18.6269L20.4355 17.7451ZM17.7051 13.751V12.1885H13.75V13.751V15.3135H17.7051V13.751ZM13.75 13.751L12.4648 14.6396L17.1904 21.4745L18.4756 20.5859L19.7608 19.6973L15.0352 12.8624L13.75 13.751ZM18.4756 20.5859L17.2499 19.6168L12.7714 25.2809L13.9971 26.25L15.2227 27.2191L19.7012 21.555L18.4756 20.5859ZM13.9971 26.25V27.8125H15.915V26.25V24.6875H13.9971V26.25ZM15.915 26.25L17.1405 27.2194L20.5975 22.8493L19.3721 21.8799L18.1466 20.9105L14.6896 25.2806L15.915 26.25ZM19.3721 21.8799L18.0867 22.7683L21.1072 27.1384L22.3926 26.25L23.6779 25.3616L20.6574 20.9915L19.3721 21.8799ZM22.3926 26.25V27.8125H26.25V26.25V24.6875H22.3926V26.25ZM26.25 26.25L27.5397 25.368L22.613 18.1639L21.3232 19.0459L20.0335 19.9279L24.9603 27.132L26.25 26.25ZM21.3232 19.0459L22.5489 20.015L26.7364 14.7191L25.5107 13.75L24.2851 12.7809L20.0976 18.0768L21.3232 19.0459ZM25.5107 13.75V12.1875H23.5947V13.75V15.3125H25.5107V13.75ZM17.1279 14.9521L15.838 15.8339L22.6935 25.8632L23.9834 24.9814L25.2733 24.0997L18.4179 14.0704L17.1279 14.9521ZM23.9834 24.9814V23.4189H22.9219V24.9814V26.5439H23.9834V24.9814ZM22.9219 24.9814L24.2071 24.0929L17.2735 14.0636L15.9883 14.9521L14.703 15.8407L21.6366 25.87L22.9219 24.9814ZM15.9883 14.9521V16.5146H17.1279V14.9521V13.3896H15.9883V14.9521Z" fill="#0C4B90" mask="url(#path-1-inside-1_107_2108)"/>
</svg>
