<svg width="40" height="40" viewBox="0 0 40 40" fill="none" xmlns="http://www.w3.org/2000/svg">
<!-- Outlined circle -->
<circle cx="20" cy="20" r="17.5" stroke="#0C4B90" stroke-width="2" fill="none"/>
<!-- YouTube icon -->
<g fill="#0C4B90">
  <!-- YouTube rounded rectangle (TV screen) -->
  <path d="M26 12H14C12 12 10.5 13.5 10.5 15.5V24.5C10.5 26.5 12 28 14 28H26C28 28 29.5 26.5 29.5 24.5V15.5C29.5 13.5 28 12 26 12ZM27.5 24.5C27.5 25.3 26.8 26 26 26H14C13.2 26 12.5 25.3 12.5 24.5V15.5C12.5 14.7 13.2 14 14 14H26C26.8 14 27.5 14.7 27.5 15.5V24.5Z"/>
  <!-- Play button triangle -->
  <path d="M17.5 17V23L23.5 20L17.5 17Z"/>
</g>
</svg>